<svg xmlns="http://www.w3.org/2000/svg" id="plantuml" style="background: rgb(255, 255, 255); width: 905px; height: 562px; overflow: hidden;" preserveAspectRatio="none meet" width="905px" height="562px" contentStyleType="text/css" zoomAndPan="magnify" version="1.1"><defs><style id="svg-pan-zoom-controls-styles" type="text/css">.svg-pan-zoom-control { cursor: pointer; fill: black; fill-opacity: 0.333; } .svg-pan-zoom-control:hover { fill-opacity: 0.8; } .svg-pan-zoom-control-background { fill: white; fill-opacity: 0.5; } .svg-pan-zoom-control-background { fill-opacity: 0.8; }</style></defs></defs><g xmlns="http://www.w3.org/2000/svg" class="svg-pan-zoom_viewport" style="transform: matrix(0.412811, 0, 0, 0.412811, 340.203, -2.98023e-006);" transform="matrix(0.412811 0 0 0.412811 340.203 -2.98023e-006)"><!--class Address--><a xmlns:xlink="http://www.w3.org/1999/xlink" xlink:title="java:com.attusteste.gerenciador.models.Address" title="java:com.attusteste.gerenciador.models.Address" target="_top" xlink:type="simple" xlink:show="new" xlink:href="java:com.attusteste.gerenciador.models.Address" href="java:com.attusteste.gerenciador.models.Address" xlink:actuate="onRequest"><g id="elem_Address"><rect id="Address" style="stroke: #181818; stroke-width: 0.5;" fill="#f1f1f1" x="7" y="7" width="884" height="541.063" rx="2.5" ry="2.5" codeline="1" /><ellipse style="stroke: #181818; stroke-width: 1;" fill="#add1b2" cx="418.75" cy="23" rx="11" ry="11" /><path fill="#000000" d="M 421.516 18.875 Q 421.672 18.6563 421.859 18.5469 Q 422.047 18.4375 422.266 18.4375 Q 422.641 18.4375 422.875 18.7031 Q 423.109 18.9531 423.109 19.5625 L 423.109 21.0156 Q 423.109 21.625 422.875 21.8906 Q 422.641 22.1563 422.266 22.1563 Q 421.922 22.1563 421.719 21.9531 Q 421.516 21.7656 421.406 21.25 Q 421.359 20.8906 421.172 20.7031 Q 420.844 20.3281 420.234 20.1094 Q 419.625 19.8906 419 19.8906 Q 418.234 19.8906 417.594 20.2188 Q 416.969 20.5469 416.469 21.2969 Q 415.984 22.0469 415.984 23.0781 L 415.984 24.1719 Q 415.984 25.4063 416.875 26.2344 Q 417.766 27.0469 419.359 27.0469 Q 420.297 27.0469 420.953 26.7969 Q 421.344 26.6406 421.766 26.2031 Q 422.031 25.9375 422.172 25.8594 Q 422.328 25.7813 422.531 25.7813 Q 422.859 25.7813 423.109 26.0469 Q 423.375 26.2969 423.375 26.6406 Q 423.375 26.9844 423.031 27.3906 Q 422.531 27.9688 421.734 28.2969 Q 420.656 28.75 419.359 28.75 Q 417.844 28.75 416.641 28.125 Q 415.656 27.625 414.969 26.5625 Q 414.281 25.4844 414.281 24.2031 L 414.281 23.0469 Q 414.281 21.7188 414.891 20.5781 Q 415.516 19.4219 416.609 18.8125 Q 417.703 18.1875 418.938 18.1875 Q 419.672 18.1875 420.313 18.3594 Q 420.969 18.5156 421.516 18.875 Z" /><text font-family="sans-serif" font-size="14" fill="#000000" lengthAdjust="spacing" textLength="52" x="439.25" y="28.7285">Address</text><line style="stroke: #181818; stroke-width: 0.5;" x1="8" y1="39" x2="890" y2="39" /><rect style="stroke: #c82930; stroke-width: 1;" fill="none" x="15" y="50.3047" width="6" height="6" /><text font-family="sans-serif" font-size="14" fill="#000000" lengthAdjust="spacing" textLength="51" x="27" y="57.5332">id: Long</text><rect style="stroke: #c82930; stroke-width: 1;" fill="none" x="15" y="67.9141" width="6" height="6" /><text font-family="sans-serif" font-size="14" fill="#000000" lengthAdjust="spacing" textLength="97" x="27" y="75.1426">person: Person</text><rect style="stroke: #c82930; stroke-width: 1;" fill="none" x="15" y="85.5234" width="6" height="6" /><text font-family="sans-serif" font-size="14" fill="#000000" lengthAdjust="spacing" textLength="140" x="27" y="92.752">street_address: String</text><rect style="stroke: #c82930; stroke-width: 1;" fill="none" x="15" y="103.133" width="6" height="6" /><text font-family="sans-serif" font-size="14" fill="#000000" lengthAdjust="spacing" textLength="68" x="27" y="110.3613">cep: String</text><rect style="stroke: #c82930; stroke-width: 1;" fill="none" x="15" y="120.742" width="6" height="6" /><text font-family="sans-serif" font-size="14" fill="#000000" lengthAdjust="spacing" textLength="93" x="27" y="127.9707">number: String</text><rect style="stroke: #c82930; stroke-width: 1;" fill="none" x="15" y="138.352" width="6" height="6" /><text font-family="sans-serif" font-size="14" fill="#000000" lengthAdjust="spacing" textLength="66" x="27" y="145.5801">city: String</text><rect style="stroke: #c82930; stroke-width: 1;" fill="none" x="15" y="155.961" width="6" height="6" /><text font-family="sans-serif" font-size="14" fill="#000000" lengthAdjust="spacing" textLength="76" x="27" y="163.1895">state: String</text><rect style="stroke: #c82930; stroke-width: 1;" fill="none" x="15" y="173.57" width="6" height="6" /><text font-family="sans-serif" font-size="14" fill="#000000" lengthAdjust="spacing" textLength="149" x="27" y="180.7988">main_address: Boolean</text><line style="stroke: #181818; stroke-width: 0.5;" x1="8" y1="187.875" x2="890" y2="187.875" /><ellipse style="stroke: #038048; stroke-width: 1;" fill="#84be84" cx="18" cy="202.18" rx="3" ry="3" /><text font-family="sans-serif" font-size="14" fill="#000000" lengthAdjust="spacing" textLength="62" x="27" y="206.4082">Address()</text><ellipse style="stroke: #038048; stroke-width: 1;" fill="#84be84" cx="18" cy="219.789" rx="3" ry="3" /><text font-family="sans-serif" font-size="14" fill="#000000" lengthAdjust="spacing" textLength="858" x="27" y="224.0176">Address(id: Long, person: Person, street_address: String, cep: String, number: String, city: String, state: String, main_address: Boolean)</text><ellipse style="stroke: #038048; stroke-width: 1;" fill="#84be84" cx="18" cy="237.398" rx="3" ry="3" /><text font-family="sans-serif" font-size="14" fill="#000000" lengthAdjust="spacing" textLength="81" x="27" y="241.627">getId(): Long</text><ellipse style="stroke: #038048; stroke-width: 1;" fill="#84be84" cx="18" cy="255.008" rx="3" ry="3" /><text font-family="sans-serif" font-size="14" fill="#000000" lengthAdjust="spacing" textLength="125" x="27" y="259.2363">setId(id: Long): void</text><ellipse style="stroke: #038048; stroke-width: 1;" fill="#84be84" cx="18" cy="272.617" rx="3" ry="3" /><text font-family="sans-serif" font-size="14" fill="#000000" lengthAdjust="spacing" textLength="128" x="27" y="276.8457">getPerson(): Person</text><ellipse style="stroke: #038048; stroke-width: 1;" fill="#84be84" cx="18" cy="290.227" rx="3" ry="3" /><text font-family="sans-serif" font-size="14" fill="#000000" lengthAdjust="spacing" textLength="205" x="27" y="294.4551">setPerson(person: Person): void</text><ellipse style="stroke: #038048; stroke-width: 1;" fill="#84be84" cx="18" cy="307.836" rx="3" ry="3" /><text font-family="sans-serif" font-size="14" fill="#000000" lengthAdjust="spacing" textLength="172" x="27" y="312.0645">getStreet_address(): String</text><ellipse style="stroke: #038048; stroke-width: 1;" fill="#84be84" cx="18" cy="325.445" rx="3" ry="3" /><text font-family="sans-serif" font-size="14" fill="#000000" lengthAdjust="spacing" textLength="300" x="27" y="329.6738">setStreet_address(street_address: String): void</text><ellipse style="stroke: #038048; stroke-width: 1;" fill="#84be84" cx="18" cy="343.055" rx="3" ry="3" /><text font-family="sans-serif" font-size="14" fill="#000000" lengthAdjust="spacing" textLength="101" x="27" y="347.2832">getCep(): String</text><ellipse style="stroke: #038048; stroke-width: 1;" fill="#84be84" cx="18" cy="360.664" rx="3" ry="3" /><text font-family="sans-serif" font-size="14" fill="#000000" lengthAdjust="spacing" textLength="157" x="27" y="364.8926">setCep(cep: String): void</text><ellipse style="stroke: #038048; stroke-width: 1;" fill="#84be84" cx="18" cy="378.273" rx="3" ry="3" /><text font-family="sans-serif" font-size="14" fill="#000000" lengthAdjust="spacing" textLength="124" x="27" y="382.502">getNumber(): String</text><ellipse style="stroke: #038048; stroke-width: 1;" fill="#84be84" cx="18" cy="395.883" rx="3" ry="3" /><text font-family="sans-serif" font-size="14" fill="#000000" lengthAdjust="spacing" textLength="205" x="27" y="400.1113">setNumber(number: String): void</text><ellipse style="stroke: #038048; stroke-width: 1;" fill="#84be84" cx="18" cy="413.492" rx="3" ry="3" /><text font-family="sans-serif" font-size="14" fill="#000000" lengthAdjust="spacing" textLength="99" x="27" y="417.7207">getCity(): String</text><ellipse style="stroke: #038048; stroke-width: 1;" fill="#84be84" cx="18" cy="431.102" rx="3" ry="3" /><text font-family="sans-serif" font-size="14" fill="#000000" lengthAdjust="spacing" textLength="153" x="27" y="435.3301">setCity(city: String): void</text><ellipse style="stroke: #038048; stroke-width: 1;" fill="#84be84" cx="18" cy="448.711" rx="3" ry="3" /><text font-family="sans-serif" font-size="14" fill="#000000" lengthAdjust="spacing" textLength="108" x="27" y="452.9395">getState(): String</text><ellipse style="stroke: #038048; stroke-width: 1;" fill="#84be84" cx="18" cy="466.32" rx="3" ry="3" /><text font-family="sans-serif" font-size="14" fill="#000000" lengthAdjust="spacing" textLength="172" x="27" y="470.5488">setState(state: String): void</text><ellipse style="stroke: #038048; stroke-width: 1;" fill="#84be84" cx="18" cy="483.93" rx="3" ry="3" /><text font-family="sans-serif" font-size="14" fill="#000000" lengthAdjust="spacing" textLength="179" x="27" y="488.1582">getMain_address(): Boolean</text><ellipse style="stroke: #038048; stroke-width: 1;" fill="#84be84" cx="18" cy="501.539" rx="3" ry="3" /><text font-family="sans-serif" font-size="14" fill="#000000" lengthAdjust="spacing" textLength="301" x="27" y="505.7676">setMain_address(main_address: Boolean): void</text><ellipse style="stroke: #038048; stroke-width: 1;" fill="#84be84" cx="18" cy="519.148" rx="3" ry="3" /><text font-family="sans-serif" font-size="14" fill="#000000" lengthAdjust="spacing" textLength="98" x="27" y="523.377">hashCode(): int</text><ellipse style="stroke: #038048; stroke-width: 1;" fill="#84be84" cx="18" cy="536.758" rx="3" ry="3" /><text font-family="sans-serif" font-size="14" fill="#000000" lengthAdjust="spacing" textLength="179" x="27" y="540.9864">equals(obj: Object): boolean</text></g></a><!--SRC=[RLFBQiCm43otNw6ZGrn_W6zjJeK-0Zc6K6HhSMHioP7MWLBwxrtvqMWTWq7QsPtLxCWg6-czU5RA0Qt7OoslCYzjcqd4tYFGbrNWm9HQAkkorYfeV3OHJYVny_Zmf5KktgofQDk1yzRaOZ-i17Xq0FWbHq8k3kZqK5b25qMcRmjmSLhZTnHwb0XHt4fjRarVh6r0qd7RILYoYVQpl5HmTQbO5vUAI5igk3HAHif2YqXOAbPr1J4LuAjADhDHMp_4ipJ2hrQhiMvK5sfd5qFrXF8H6E_0fWdysQx0NsJNHsVzTj0jcmGeCeULVmm-BHaJoatanv2VT-S4B3PwCIXvVZzV0DbrCD9xT3E1U_jd_2AvVeV_lSxIdtVq348JRP0GkFIoyOajwbny5ZMKIAbYwl_x1m00]--></g><g xmlns="http://www.w3.org/2000/svg" class="svg-pan-zoom-control" id="svg-pan-zoom-controls" transform="translate(984 156) scale(0.75)"><g class="svg-pan-zoom-control" id="svg-pan-zoom-zoom-in" transform="translate(30.5 5) scale(0.015)"><rect class="svg-pan-zoom-control-background" x="0" y="0" width="1500" height="1400" /><path class="svg-pan-zoom-control-element" d="M 1280 576 v 128 q 0 26 -19 45 t -45 19 h -320 v 320 q 0 26 -19 45 t -45 19 h -128 q -26 0 -45 -19 t -19 -45 v -320 h -320 q -26 0 -45 -19 t -19 -45 v -128 q 0 -26 19 -45 t 45 -19 h 320 v -320 q 0 -26 19 -45 t 45 -19 h 128 q 26 0 45 19 t 19 45 v 320 h 320 q 26 0 45 19 t 19 45 Z M 1536 1120 v -960 q 0 -119 -84.5 -203.5 t -203.5 -84.5 h -960 q -119 0 -203.5 84.5 t -84.5 203.5 v 960 q 0 119 84.5 203.5 t 203.5 84.5 h 960 q 119 0 203.5 -84.5 t 84.5 -203.5 Z" /></g><g class="svg-pan-zoom-control" id="svg-pan-zoom-reset-pan-zoom" transform="translate(5 35) scale(0.4)"><rect class="svg-pan-zoom-control-background" x="2" y="2" width="182" height="58" /><path class="svg-pan-zoom-control-element" d="M 33.051 20.632 c -0.742 -0.406 -1.854 -0.609 -3.338 -0.609 h -7.969 v 9.281 h 7.769 c 1.543 0 2.701 -0.188 3.473 -0.562 c 1.365 -0.656 2.048 -1.953 2.048 -3.891 C 35.032 22.757 34.372 21.351 33.051 20.632 Z" /><path class="svg-pan-zoom-control-element" d="M 170.231 0.5 H 15.847 C 7.102 0.5 0.5 5.708 0.5 11.84 v 38.861 C 0.5 56.833 7.102 61.5 15.847 61.5 h 154.384 c 8.745 0 15.269 -4.667 15.269 -10.798 V 11.84 C 185.5 5.708 178.976 0.5 170.231 0.5 Z M 42.837 48.569 h -7.969 c -0.219 -0.766 -0.375 -1.383 -0.469 -1.852 c -0.188 -0.969 -0.289 -1.961 -0.305 -2.977 l -0.047 -3.211 c -0.03 -2.203 -0.41 -3.672 -1.142 -4.406 c -0.732 -0.734 -2.103 -1.102 -4.113 -1.102 h -7.05 v 13.547 h -7.055 V 14.022 h 16.524 c 2.361 0.047 4.178 0.344 5.45 0.891 c 1.272 0.547 2.351 1.352 3.234 2.414 c 0.731 0.875 1.31 1.844 1.737 2.906 s 0.64 2.273 0.64 3.633 c 0 1.641 -0.414 3.254 -1.242 4.84 s -2.195 2.707 -4.102 3.363 c 1.594 0.641 2.723 1.551 3.387 2.73 s 0.996 2.98 0.996 5.402 v 2.32 c 0 1.578 0.063 2.648 0.19 3.211 c 0.19 0.891 0.635 1.547 1.333 1.969 V 48.569 Z M 75.579 48.569 h -26.18 V 14.022 h 25.336 v 6.117 H 56.454 v 7.336 h 16.781 v 6 H 56.454 v 8.883 h 19.125 V 48.569 Z M 104.497 46.331 c -2.44 2.086 -5.887 3.129 -10.34 3.129 c -4.548 0 -8.125 -1.027 -10.731 -3.082 s -3.909 -4.879 -3.909 -8.473 h 6.891 c 0.224 1.578 0.662 2.758 1.316 3.539 c 1.196 1.422 3.246 2.133 6.15 2.133 c 1.739 0 3.151 -0.188 4.236 -0.562 c 2.058 -0.719 3.087 -2.055 3.087 -4.008 c 0 -1.141 -0.504 -2.023 -1.512 -2.648 c -1.008 -0.609 -2.607 -1.148 -4.796 -1.617 l -3.74 -0.82 c -3.676 -0.812 -6.201 -1.695 -7.576 -2.648 c -2.328 -1.594 -3.492 -4.086 -3.492 -7.477 c 0 -3.094 1.139 -5.664 3.417 -7.711 s 5.623 -3.07 10.036 -3.07 c 3.685 0 6.829 0.965 9.431 2.895 c 2.602 1.93 3.966 4.73 4.093 8.402 h -6.938 c -0.128 -2.078 -1.057 -3.555 -2.787 -4.43 c -1.154 -0.578 -2.587 -0.867 -4.301 -0.867 c -1.907 0 -3.428 0.375 -4.565 1.125 c -1.138 0.75 -1.706 1.797 -1.706 3.141 c 0 1.234 0.561 2.156 1.682 2.766 c 0.721 0.406 2.25 0.883 4.589 1.43 l 6.063 1.43 c 2.657 0.625 4.648 1.461 5.975 2.508 c 2.059 1.625 3.089 3.977 3.089 7.055 C 108.157 41.624 106.937 44.245 104.497 46.331 Z M 139.61 48.569 h -26.18 V 14.022 h 25.336 v 6.117 h -18.281 v 7.336 h 16.781 v 6 h -16.781 v 8.883 h 19.125 V 48.569 Z M 170.337 20.14 h -10.336 v 28.43 h -7.266 V 20.14 h -10.383 v -6.117 h 27.984 V 20.14 Z" /></g><g class="svg-pan-zoom-control" id="svg-pan-zoom-zoom-out" transform="translate(30.5 70) scale(0.015)"><rect class="svg-pan-zoom-control-background" x="0" y="0" width="1500" height="1400" /><path class="svg-pan-zoom-control-element" d="M 1280 576 v 128 q 0 26 -19 45 t -45 19 h -896 q -26 0 -45 -19 t -19 -45 v -128 q 0 -26 19 -45 t 45 -19 h 896 q 26 0 45 19 t 19 45 Z M 1536 1120 v -960 q 0 -119 -84.5 -203.5 t -203.5 -84.5 h -960 q -119 0 -203.5 84.5 t -84.5 203.5 v 960 q 0 119 84.5 203.5 t 203.5 84.5 h 960 q 119 0 203.5 -84.5 t 84.5 -203.5 Z" /></g></g></svg>