<svg xmlns="http://www.w3.org/2000/svg" id="plantuml" style="background: rgb(255, 255, 255); width: 378px; height: 469px; overflow: hidden;" preserveAspectRatio="none meet" width="378px" height="469px" contentStyleType="text/css" zoomAndPan="magnify" version="1.1"><defs><style id="svg-pan-zoom-controls-styles" type="text/css">.svg-pan-zoom-control { cursor: pointer; fill: black; fill-opacity: 0.333; } .svg-pan-zoom-control:hover { fill-opacity: 0.8; } .svg-pan-zoom-control-background { fill: white; fill-opacity: 0.5; } .svg-pan-zoom-control-background { fill-opacity: 0.8; }</style></defs></defs><g xmlns="http://www.w3.org/2000/svg" class="svg-pan-zoom_viewport" style="transform: matrix(0.494669, 0, 0, 0.494669, 433.507, 2.95043e-006);" transform="matrix(0.494669 0 0 0.494669 433.507 2.95043e-006)"><!--class Person--><a xmlns:xlink="http://www.w3.org/1999/xlink" xlink:title="java:com.attusteste.gerenciador.models.Person" title="java:com.attusteste.gerenciador.models.Person" target="_top" xlink:type="simple" xlink:show="new" xlink:href="java:com.attusteste.gerenciador.models.Person" href="java:com.attusteste.gerenciador.models.Person" xlink:actuate="onRequest"><g id="elem_Person"><rect id="Person" style="stroke: #181818; stroke-width: 0.5;" fill="#f1f1f1" x="7" y="115" width="364" height="347.359" rx="2.5" ry="2.5" codeline="1" /><ellipse style="stroke: #181818; stroke-width: 1;" fill="#add1b2" cx="162.25" cy="131" rx="11" ry="11" /><path fill="#000000" d="M 165.016 126.875 Q 165.172 126.656 165.359 126.547 Q 165.547 126.438 165.766 126.438 Q 166.141 126.438 166.375 126.703 Q 166.609 126.953 166.609 127.563 L 166.609 129.016 Q 166.609 129.625 166.375 129.891 Q 166.141 130.156 165.766 130.156 Q 165.422 130.156 165.219 129.953 Q 165.016 129.766 164.906 129.25 Q 164.859 128.891 164.672 128.703 Q 164.344 128.328 163.734 128.109 Q 163.125 127.891 162.5 127.891 Q 161.734 127.891 161.094 128.219 Q 160.469 128.547 159.969 129.297 Q 159.484 130.047 159.484 131.078 L 159.484 132.172 Q 159.484 133.406 160.375 134.234 Q 161.266 135.047 162.859 135.047 Q 163.797 135.047 164.453 134.797 Q 164.844 134.641 165.266 134.203 Q 165.531 133.938 165.672 133.859 Q 165.828 133.781 166.031 133.781 Q 166.359 133.781 166.609 134.047 Q 166.875 134.297 166.875 134.641 Q 166.875 134.984 166.531 135.391 Q 166.031 135.969 165.234 136.297 Q 164.156 136.75 162.859 136.75 Q 161.344 136.75 160.141 136.125 Q 159.156 135.625 158.469 134.563 Q 157.781 133.484 157.781 132.203 L 157.781 131.047 Q 157.781 129.719 158.391 128.578 Q 159.016 127.422 160.109 126.813 Q 161.203 126.188 162.438 126.188 Q 163.172 126.188 163.813 126.359 Q 164.469 126.516 165.016 126.875 Z" /><text font-family="sans-serif" font-size="14" fill="#000000" lengthAdjust="spacing" textLength="45" x="182.75" y="136.7285">Person</text><line style="stroke: #181818; stroke-width: 0.5;" x1="8" y1="147" x2="370" y2="147" /><rect style="stroke: #c82930; stroke-width: 1;" fill="none" x="15" y="158.305" width="6" height="6" /><text font-family="sans-serif" font-size="14" text-decoration="underline" fill="#000000" lengthAdjust="spacing" textLength="139" x="27" y="165.5332">serialVersionUID: long</text><rect style="stroke: #c82930; stroke-width: 1;" fill="none" x="15" y="175.914" width="6" height="6" /><text font-family="sans-serif" font-size="14" fill="#000000" lengthAdjust="spacing" textLength="51" x="27" y="183.1426">id: Long</text><rect style="stroke: #c82930; stroke-width: 1;" fill="none" x="15" y="193.523" width="6" height="6" /><text font-family="sans-serif" font-size="14" fill="#000000" lengthAdjust="spacing" textLength="80" x="27" y="200.752">name: String</text><rect style="stroke: #c82930; stroke-width: 1;" fill="none" x="15" y="211.133" width="6" height="6" /><text font-family="sans-serif" font-size="14" fill="#000000" lengthAdjust="spacing" textLength="136" x="27" y="218.3613">birth_date: LocalDate</text><rect style="stroke: #c82930; stroke-width: 1;" fill="none" x="15" y="228.742" width="6" height="6" /><text font-family="sans-serif" font-size="14" fill="#000000" lengthAdjust="spacing" textLength="149" x="27" y="235.9707">address: List&lt;Address&gt;</text><line style="stroke: #181818; stroke-width: 0.5;" x1="8" y1="243.047" x2="370" y2="243.047" /><ellipse style="stroke: #038048; stroke-width: 1;" fill="#84be84" cx="18" cy="257.352" rx="3" ry="3" /><text font-family="sans-serif" font-size="14" fill="#000000" lengthAdjust="spacing" textLength="55" x="27" y="261.5801">Person()</text><ellipse style="stroke: #038048; stroke-width: 1;" fill="#84be84" cx="18" cy="274.961" rx="3" ry="3" /><text font-family="sans-serif" font-size="14" fill="#000000" lengthAdjust="spacing" textLength="338" x="27" y="279.1895">Person(id: Long, name: String, birth_date: LocalDate)</text><ellipse style="stroke: #038048; stroke-width: 1;" fill="#84be84" cx="18" cy="292.57" rx="3" ry="3" /><text font-family="sans-serif" font-size="14" fill="#000000" lengthAdjust="spacing" textLength="180" x="27" y="296.7988">getAddress(): List&lt;Address&gt;</text><ellipse style="stroke: #038048; stroke-width: 1;" fill="#84be84" cx="18" cy="310.18" rx="3" ry="3" /><text font-family="sans-serif" font-size="14" fill="#000000" lengthAdjust="spacing" textLength="264" x="27" y="314.4082">setAddress(address: List&lt;Address&gt;): void</text><ellipse style="stroke: #038048; stroke-width: 1;" fill="#84be84" cx="18" cy="327.789" rx="3" ry="3" /><text font-family="sans-serif" font-size="14" fill="#000000" lengthAdjust="spacing" textLength="81" x="27" y="332.0176">getId(): Long</text><ellipse style="stroke: #038048; stroke-width: 1;" fill="#84be84" cx="18" cy="345.398" rx="3" ry="3" /><text font-family="sans-serif" font-size="14" fill="#000000" lengthAdjust="spacing" textLength="125" x="27" y="349.627">setId(id: Long): void</text><ellipse style="stroke: #038048; stroke-width: 1;" fill="#84be84" cx="18" cy="363.008" rx="3" ry="3" /><text font-family="sans-serif" font-size="14" fill="#000000" lengthAdjust="spacing" textLength="111" x="27" y="367.2363">getName(): String</text><ellipse style="stroke: #038048; stroke-width: 1;" fill="#84be84" cx="18" cy="380.617" rx="3" ry="3" /><text font-family="sans-serif" font-size="14" fill="#000000" lengthAdjust="spacing" textLength="179" x="27" y="384.8457">setName(name: String): void</text><ellipse style="stroke: #038048; stroke-width: 1;" fill="#84be84" cx="18" cy="398.227" rx="3" ry="3" /><text font-family="sans-serif" font-size="14" fill="#000000" lengthAdjust="spacing" textLength="167" x="27" y="402.4551">getBirth_date(): LocalDate</text><ellipse style="stroke: #038048; stroke-width: 1;" fill="#84be84" cx="18" cy="415.836" rx="3" ry="3" /><text font-family="sans-serif" font-size="14" fill="#000000" lengthAdjust="spacing" textLength="264" x="27" y="420.0645">setBirth_date(birth_date: LocalDate): void</text><ellipse style="stroke: #038048; stroke-width: 1;" fill="#84be84" cx="18" cy="433.445" rx="3" ry="3" /><text font-family="sans-serif" font-size="14" fill="#000000" lengthAdjust="spacing" textLength="98" x="27" y="437.6738">hashCode(): int</text><ellipse style="stroke: #038048; stroke-width: 1;" fill="#84be84" cx="18" cy="451.055" rx="3" ry="3" /><text font-family="sans-serif" font-size="14" fill="#000000" lengthAdjust="spacing" textLength="179" x="27" y="455.2832">equals(obj: Object): boolean</text></g></a><!--class Serializable--><g id="elem_Serializable"><rect id="Serializable" style="stroke: #181818; stroke-width: 0.5;" fill="#f1f1f1" x="136.5" y="7" width="105" height="48" rx="2.5" ry="2.5" codeline="20" /><ellipse style="stroke: #181818; stroke-width: 1;" fill="#b4a7e5" cx="151.5" cy="23" rx="11" ry="11" /><path fill="#000000" d="M 152.453 19.6406 L 152.453 26.2969 L 154.172 26.2969 Q 154.781 26.2969 155.047 26.5313 Q 155.313 26.7656 155.313 27.1563 Q 155.313 27.5313 155.047 27.7656 Q 154.781 28 154.172 28 L 149.031 28 Q 148.422 28 148.156 27.7656 Q 147.891 27.5313 147.891 27.1406 Q 147.891 26.7656 148.156 26.5313 Q 148.422 26.2969 149.031 26.2969 L 150.75 26.2969 L 150.75 19.6406 L 149.031 19.6406 Q 148.422 19.6406 148.156 19.4063 Q 147.891 19.1719 147.891 18.7813 Q 147.891 18.4063 148.156 18.1719 Q 148.422 17.9375 149.031 17.9375 L 154.172 17.9375 Q 154.781 17.9375 155.047 18.1719 Q 155.313 18.4063 155.313 18.7813 Q 155.313 19.1719 155.047 19.4063 Q 154.781 19.6406 154.172 19.6406 L 152.453 19.6406 Z" /><text font-family="sans-serif" font-size="14" font-style="italic" fill="#000000" lengthAdjust="spacing" textLength="73" x="165.5" y="28.7285">Serializable</text><line style="stroke: #181818; stroke-width: 0.5;" x1="137.5" y1="39" x2="240.5" y2="39" /><line style="stroke: #181818; stroke-width: 0.5;" x1="137.5" y1="47" x2="240.5" y2="47" /></g><!--reverse link Serializable to Person--><g id="link_Serializable_Person"><path id="Serializable-backto-Person" style="stroke: #181818; stroke-dasharray: 7,7; stroke-width: 1;" fill="none" d="M 189 73.12 C 189 88.17 189 91.32 189 114.79" codeline="22" /><polygon style="stroke: #181818; stroke-width: 1;" fill="none" points="189,55.12 183,73.12 195,73.12 189,55.12" /></g><!--SRC=[RLB1Ri8m33tJhyYnQAmVKA59sxWWJTiaj5qGcjp4GAgGQB7XCDP_dzD20QrI3_Rpy_DpNEs0IBrZfE3LSbd30KeTTWKmxubHlcA34RssO48iTi6WewBZhrRgc8tkZyJ0LZUAC5fmdrApmN_CPwLomM-4OKsfNhhGmmvBjU1esxIoaRTV1XWJGuERIIWu61EHI41BF7tiieTiTDTDpiUNy2m-KTVQ4pKedVeso2V1VFn_05sgmoQavn2iwOJcfjLeTqkjaf_ztF1UnLfYdXTFt1QxzdpJyTJRxoRqRvDQhuh3Q_PAMw3jinmjYLZFWk3t7XpbeQfBzLRLg5bALGWEmMTD9YICQz2e5kqvxGzK3kNGJNO3J7-BulJV_040]--></g><g xmlns="http://www.w3.org/2000/svg" class="svg-pan-zoom-control" id="svg-pan-zoom-controls" transform="translate(984 156) scale(0.75)"><g class="svg-pan-zoom-control" id="svg-pan-zoom-zoom-in" transform="translate(30.5 5) scale(0.015)"><rect class="svg-pan-zoom-control-background" x="0" y="0" width="1500" height="1400" /><path class="svg-pan-zoom-control-element" d="M 1280 576 v 128 q 0 26 -19 45 t -45 19 h -320 v 320 q 0 26 -19 45 t -45 19 h -128 q -26 0 -45 -19 t -19 -45 v -320 h -320 q -26 0 -45 -19 t -19 -45 v -128 q 0 -26 19 -45 t 45 -19 h 320 v -320 q 0 -26 19 -45 t 45 -19 h 128 q 26 0 45 19 t 19 45 v 320 h 320 q 26 0 45 19 t 19 45 Z M 1536 1120 v -960 q 0 -119 -84.5 -203.5 t -203.5 -84.5 h -960 q -119 0 -203.5 84.5 t -84.5 203.5 v 960 q 0 119 84.5 203.5 t 203.5 84.5 h 960 q 119 0 203.5 -84.5 t 84.5 -203.5 Z" /></g><g class="svg-pan-zoom-control" id="svg-pan-zoom-reset-pan-zoom" transform="translate(5 35) scale(0.4)"><rect class="svg-pan-zoom-control-background" x="2" y="2" width="182" height="58" /><path class="svg-pan-zoom-control-element" d="M 33.051 20.632 c -0.742 -0.406 -1.854 -0.609 -3.338 -0.609 h -7.969 v 9.281 h 7.769 c 1.543 0 2.701 -0.188 3.473 -0.562 c 1.365 -0.656 2.048 -1.953 2.048 -3.891 C 35.032 22.757 34.372 21.351 33.051 20.632 Z" /><path class="svg-pan-zoom-control-element" d="M 170.231 0.5 H 15.847 C 7.102 0.5 0.5 5.708 0.5 11.84 v 38.861 C 0.5 56.833 7.102 61.5 15.847 61.5 h 154.384 c 8.745 0 15.269 -4.667 15.269 -10.798 V 11.84 C 185.5 5.708 178.976 0.5 170.231 0.5 Z M 42.837 48.569 h -7.969 c -0.219 -0.766 -0.375 -1.383 -0.469 -1.852 c -0.188 -0.969 -0.289 -1.961 -0.305 -2.977 l -0.047 -3.211 c -0.03 -2.203 -0.41 -3.672 -1.142 -4.406 c -0.732 -0.734 -2.103 -1.102 -4.113 -1.102 h -7.05 v 13.547 h -7.055 V 14.022 h 16.524 c 2.361 0.047 4.178 0.344 5.45 0.891 c 1.272 0.547 2.351 1.352 3.234 2.414 c 0.731 0.875 1.31 1.844 1.737 2.906 s 0.64 2.273 0.64 3.633 c 0 1.641 -0.414 3.254 -1.242 4.84 s -2.195 2.707 -4.102 3.363 c 1.594 0.641 2.723 1.551 3.387 2.73 s 0.996 2.98 0.996 5.402 v 2.32 c 0 1.578 0.063 2.648 0.19 3.211 c 0.19 0.891 0.635 1.547 1.333 1.969 V 48.569 Z M 75.579 48.569 h -26.18 V 14.022 h 25.336 v 6.117 H 56.454 v 7.336 h 16.781 v 6 H 56.454 v 8.883 h 19.125 V 48.569 Z M 104.497 46.331 c -2.44 2.086 -5.887 3.129 -10.34 3.129 c -4.548 0 -8.125 -1.027 -10.731 -3.082 s -3.909 -4.879 -3.909 -8.473 h 6.891 c 0.224 1.578 0.662 2.758 1.316 3.539 c 1.196 1.422 3.246 2.133 6.15 2.133 c 1.739 0 3.151 -0.188 4.236 -0.562 c 2.058 -0.719 3.087 -2.055 3.087 -4.008 c 0 -1.141 -0.504 -2.023 -1.512 -2.648 c -1.008 -0.609 -2.607 -1.148 -4.796 -1.617 l -3.74 -0.82 c -3.676 -0.812 -6.201 -1.695 -7.576 -2.648 c -2.328 -1.594 -3.492 -4.086 -3.492 -7.477 c 0 -3.094 1.139 -5.664 3.417 -7.711 s 5.623 -3.07 10.036 -3.07 c 3.685 0 6.829 0.965 9.431 2.895 c 2.602 1.93 3.966 4.73 4.093 8.402 h -6.938 c -0.128 -2.078 -1.057 -3.555 -2.787 -4.43 c -1.154 -0.578 -2.587 -0.867 -4.301 -0.867 c -1.907 0 -3.428 0.375 -4.565 1.125 c -1.138 0.75 -1.706 1.797 -1.706 3.141 c 0 1.234 0.561 2.156 1.682 2.766 c 0.721 0.406 2.25 0.883 4.589 1.43 l 6.063 1.43 c 2.657 0.625 4.648 1.461 5.975 2.508 c 2.059 1.625 3.089 3.977 3.089 7.055 C 108.157 41.624 106.937 44.245 104.497 46.331 Z M 139.61 48.569 h -26.18 V 14.022 h 25.336 v 6.117 h -18.281 v 7.336 h 16.781 v 6 h -16.781 v 8.883 h 19.125 V 48.569 Z M 170.337 20.14 h -10.336 v 28.43 h -7.266 V 20.14 h -10.383 v -6.117 h 27.984 V 20.14 Z" /></g><g class="svg-pan-zoom-control" id="svg-pan-zoom-zoom-out" transform="translate(30.5 70) scale(0.015)"><rect class="svg-pan-zoom-control-background" x="0" y="0" width="1500" height="1400" /><path class="svg-pan-zoom-control-element" d="M 1280 576 v 128 q 0 26 -19 45 t -45 19 h -896 q -26 0 -45 -19 t -19 -45 v -128 q 0 -26 19 -45 t 45 -19 h 896 q 26 0 45 19 t 19 45 Z M 1536 1120 v -960 q 0 -119 -84.5 -203.5 t -203.5 -84.5 h -960 q -119 0 -203.5 84.5 t -84.5 203.5 v 960 q 0 119 84.5 203.5 t 203.5 84.5 h 960 q 119 0 203.5 -84.5 t 84.5 -203.5 Z" /></g></g></svg>